<?xml version="1.0" standalone="no"?>
<!DOCTYPE svg PUBLIC "-//W3C//DTD SVG 20010904//EN"
 "http://www.w3.org/TR/2001/REC-SVG-20010904/DTD/svg10.dtd">
<svg version="1.0" xmlns="http://www.w3.org/2000/svg"
 width="319.000000pt" height="319.000000pt" viewBox="0 0 319.000000 319.000000"
 preserveAspectRatio="xMidYMid meet">
<metadata>
Created by potrace 1.11, written by Peter Selinger 2001-2013
</metadata>
<g transform="translate(0.000000,319.000000) scale(0.100000,-0.100000)"
fill="#000000" stroke="none">
<path d="M1083 2634 c-13 -13 -23 -28 -23 -34 0 -6 -3 -9 -7 -7 -5 3 -8 -23
-8 -56 l0 -62 -35 2 c-62 3 -74 3 -117 3 -24 0 -43 -5 -43 -10 0 -6 -10 -10
-23 -10 -13 0 -28 -5 -34 -11 -15 -15 -34 -3 -26 16 3 9 14 13 29 11 13 -3 26
0 30 5 10 17 -4 23 -21 9 -8 -7 -15 -9 -15 -4 0 5 -25 9 -55 10 -58 1 -64 -14
-7 -18 35 -3 40 -9 17 -28 -9 -7 -15 -8 -15 -2 0 11 -18 11 -36 -1 -6 -3 -14
-3 -18 1 -9 9 -56 10 -56 2 0 -15 14 -19 31 -10 12 7 20 7 24 0 5 -8 11 -7 21
1 9 7 14 8 14 1 0 -11 18 -11 37 1 26 16 23 -16 -3 -41 -16 -15 -34 -36 -41
-47 -6 -11 -16 -19 -23 -17 -6 1 -9 -2 -6 -7 4 -5 -5 -21 -18 -34 -14 -14 -22
-28 -19 -31 4 -3 1 -6 -5 -6 -7 0 -12 -4 -12 -10 0 -5 8 -7 18 -3 13 5 11 0
-7 -20 -15 -16 -19 -27 -12 -27 9 0 10 -4 4 -12 -14 -18 -16 -95 -5 -146 9
-38 8 -44 -10 -53 -11 -6 -18 -7 -15 -2 6 10 -59 10 -69 0 -7 -6 18 -11 39 -8
4 0 7 -4 7 -10 0 -5 6 -7 13 -3 6 4 9 3 4 -1 -4 -5 -22 -9 -39 -9 -17 -1 -33
-7 -34 -14 -1 -7 0 -8 3 -2 2 5 8 8 12 5 4 -2 24 -5 44 -7 31 -2 34 -4 24 -17
-10 -12 -9 -14 5 -9 13 5 15 1 12 -22 -3 -15 -1 -31 5 -34 6 -4 6 -18 1 -35
-4 -15 -4 -34 1 -42 5 -8 3 -16 -3 -20 -8 -5 -9 -12 -1 -21 5 -7 7 -24 3 -38
-4 -14 -3 -35 1 -47 5 -13 4 -25 -2 -29 -6 -3 -6 -10 -1 -17 14 -18 14 -100 0
-91 -7 5 -8 3 -3 -6 12 -20 13 -94 1 -102 -8 -5 -8 -8 0 -8 11 0 12 -60 0 -78
-4 -7 -3 -12 1 -12 5 0 10 -66 11 -147 1 -107 5 -149 14 -155 11 -6 10 -10 -1
-17 -9 -6 -10 -11 -2 -15 6 -4 11 -12 11 -17 0 -6 -5 -7 -12 -3 -7 4 -8 3 -4
-5 4 -6 11 -9 16 -6 11 7 22 -24 13 -37 -3 -6 -1 -8 4 -5 9 6 99 -72 94 -80
-6 -12 2 -21 14 -17 8 4 15 1 15 -6 0 -6 4 -9 9 -5 5 3 16 -1 24 -9 8 -8 17
-13 20 -10 3 4 11 3 17 -1 8 -5 5 -11 -7 -21 -16 -13 -14 -13 11 -2 23 10 30
10 34 0 2 -6 10 -12 18 -12 23 0 16 -15 -8 -17 -51 -3 -78 -8 -78 -13 0 -3 -9
-6 -20 -6 -11 0 -20 4 -20 9 0 4 -5 5 -11 1 -8 -4 -7 -9 2 -16 11 -7 11 -11 2
-15 -21 -8 -15 -23 8 -23 15 0 19 4 15 16 -4 10 -2 14 6 11 7 -2 12 -10 10
-17 -3 -11 0 -11 12 -1 8 7 20 10 26 6 5 -3 10 -1 10 4 0 6 -5 11 -12 11 -6 0
-9 2 -6 5 3 3 17 -1 31 -8 15 -8 24 -17 21 -20 -10 -9 36 -28 60 -25 13 1 31
-3 40 -11 14 -12 16 -12 10 4 -5 13 -4 16 4 11 6 -4 21 -2 32 4 13 7 20 7 20
1 0 -6 6 -9 13 -7 6 1 9 1 5 -1 -5 -3 -3 -13 3 -24 14 -27 27 -16 22 18 -4 22
-2 25 6 13 11 -15 15 -8 12 22 -1 9 4 20 10 24 9 5 10 2 6 -9 -10 -26 2 -50
18 -37 10 8 17 6 28 -10 l15 -22 7 22 c4 13 2 27 -5 34 -10 8 -11 5 -6 -14 6
-21 5 -22 -4 -7 -8 12 -18 16 -31 12 -11 -4 -19 -2 -19 4 0 11 13 14 53 14 11
0 16 5 13 12 -3 8 2 12 12 10 9 -2 27 -4 40 -4 12 -1 22 -6 22 -12 0 -5 -4 -8
-9 -5 -5 4 -12 0 -14 -6 -4 -10 -6 -10 -6 0 -1 10 -4 10 -16 -2 -15 -14 -20
-36 -9 -36 3 0 14 5 24 10 13 7 21 7 25 0 3 -5 11 -10 16 -10 6 0 7 6 3 13 -5
8 -2 8 9 -2 10 -8 17 -9 17 -3 0 6 10 9 23 6 31 -8 38 -8 72 1 23 5 26 4 15
-4 -18 -13 -1 -14 20 -1 9 5 19 5 27 -2 10 -8 12 -7 7 6 -6 14 -3 15 22 1 20
-10 32 -11 41 -3 7 6 22 8 33 5 11 -3 23 -1 26 4 3 6 16 3 31 -6 14 -10 23
-13 19 -7 -3 5 6 12 19 15 14 2 28 0 31 -5 3 -5 12 -4 20 3 11 9 14 8 14 -7 0
-16 2 -17 10 -4 9 13 11 13 20 0 5 -8 10 -10 10 -4 0 6 14 11 30 12 21 0 28
-3 24 -11 -5 -9 -4 -9 6 0 10 9 16 9 26 -2 20 -20 17 -26 -11 -21 -15 3 -23 1
-20 -5 4 -5 11 -7 16 -4 5 4 9 2 9 -3 0 -11 46 -10 57 2 4 4 2 6 -6 4 -7 -1
-16 3 -19 11 -3 9 0 11 8 6 9 -5 11 -4 6 3 -10 16 7 15 23 0 11 -11 13 -10 8
4 -3 10 -2 20 4 23 5 4 8 1 7 -5 -2 -7 7 -14 20 -16 13 -2 21 0 18 5 -3 4 17
8 44 7 28 0 50 -4 50 -9 0 -4 10 -5 23 -1 25 8 30 8 72 -1 16 -3 33 -12 37
-18 6 -9 8 -9 8 0 0 6 9 10 20 8 11 -2 20 1 20 7 0 5 7 8 15 5 8 -4 17 -2 20
4 4 5 15 3 27 -6 15 -10 25 -11 34 -4 14 12 7 50 -10 48 -19 -2 -56 13 -56 23
0 12 53 6 62 -7 4 -5 8 0 8 11 0 12 -8 28 -17 35 -9 8 -14 9 -11 4 4 -7 -3
-11 -17 -11 -20 0 -22 3 -14 18 6 10 14 16 19 13 5 -3 11 -1 15 5 4 6 11 8 16
5 5 -4 9 -1 9 4 0 6 7 11 15 11 17 0 27 7 78 55 18 16 36 28 42 27 5 -2 7 0 2
4 -4 4 0 16 10 26 9 10 13 21 10 25 -10 9 12 33 26 27 7 -2 17 7 24 21 7 16 8
25 1 25 -6 0 -5 6 2 15 9 11 9 15 1 15 -8 0 -9 5 -1 19 7 13 7 22 0 26 -6 4
-7 13 -1 24 8 14 8 56 1 56 -7 0 -5 63 3 73 5 6 6 12 1 12 -5 0 -8 42 -7 92 2
51 4 209 5 351 1 141 5 257 8 257 8 0 5 44 -3 57 -4 7 -3 14 3 18 6 3 7 14 2
23 -4 9 -7 29 -6 45 0 15 -3 27 -7 27 -5 0 -9 7 -9 16 0 9 5 13 13 9 6 -4 5
-1 -3 7 -19 17 -24 44 -9 54 8 5 9 3 4 -6 -6 -9 -4 -11 4 -5 9 5 6 14 -11 33
-13 14 -16 22 -8 18 8 -4 6 0 -5 9 -11 9 -18 17 -15 18 7 3 -33 67 -42 67 -4
0 -8 6 -8 14 0 8 -7 17 -16 20 -8 3 -12 10 -9 16 3 5 -1 10 -10 10 -9 0 -13 5
-10 10 3 6 -1 10 -9 10 -9 0 -16 5 -16 11 0 5 -5 7 -10 4 -12 -7 -40 12 -40
26 0 5 8 6 18 2 9 -3 13 -2 9 3 -4 4 -33 9 -64 11 -31 1 -59 6 -62 11 -3 5
-19 10 -35 10 -15 0 -32 5 -36 12 -6 10 -8 10 -12 -1 -11 -32 -24 6 -23 65 1
36 -2 63 -6 60 -4 -2 -12 3 -17 11 -11 21 -52 15 -77 -10 -11 -11 -21 -36 -22
-55 -7 -87 -6 -87 -30 -82 -15 3 -23 -1 -23 -9 -1 -9 -4 -8 -11 4 -10 17 -12
17 -23 1 -9 -11 -15 -13 -20 -6 -4 7 -15 8 -30 2 -13 -5 -27 -6 -31 -2 -3 3
-10 0 -15 -8 -6 -8 -10 -10 -10 -5 0 6 -12 10 -27 9 -16 -1 -32 1 -38 4 -19
11 -47 9 -52 -5 -4 -11 -9 -10 -26 4 -11 10 -17 12 -13 6 5 -9 -2 -13 -24 -13
-17 0 -29 4 -25 9 3 5 1 13 -5 16 -6 4 -9 1 -8 -6 4 -18 -33 -24 -43 -8 -7 12
-10 11 -21 0 -11 -11 -11 -13 1 -6 10 5 12 4 7 -4 -4 -6 -12 -8 -19 -4 -6 3
-87 6 -181 5 -179 -1 -215 3 -198 20 7 7 7 19 2 34 -6 16 -6 24 1 24 6 0 5 9
-3 23 -7 12 -11 26 -10 30 1 5 -2 6 -8 2 -9 -6 -14 8 -11 28 1 5 -3 6 -9 2 -5
-3 -10 -2 -10 3 0 16 -25 9 -47 -14z m-153 -1960 c0 -8 -5 -14 -12 -14 -6 0
-8 3 -5 7 4 3 2 12 -5 20 -8 11 -7 12 6 7 9 -3 16 -12 16 -20z m404 10 c3 -8
2 -12 -4 -9 -6 3 -10 10 -10 16 0 14 7 11 14 -7z m566 -34 c0 -5 -2 -10 -4
-10 -3 0 -8 5 -11 10 -3 6 -1 10 4 10 6 0 11 -4 11 -10z m470 4 c0 -8 -19 -13
-24 -6 -3 5 1 9 9 9 8 0 15 -2 15 -3z"/>
<path d="M516 2492 c-3 -5 1 -9 9 -9 8 0 12 4 9 9 -3 4 -7 8 -9 8 -2 0 -6 -4
-9 -8z"/>
<path d="M645 2490 c-4 -6 -12 -7 -18 -4 -7 4 -9 3 -4 -1 4 -5 18 -10 30 -11
12 -2 16 0 9 2 -6 3 -10 10 -6 15 3 5 3 9 0 9 -3 0 -8 -5 -11 -10z"/>
<path d="M515 2450 c-3 -5 -1 -10 4 -10 6 0 11 5 11 10 0 6 -2 10 -4 10 -3 0
-8 -4 -11 -10z"/>
<path d="M547 2448 c-7 -4 4 -7 26 -6 20 1 37 4 37 8 0 9 -48 8 -63 -2z"/>
<path d="M416 1996 c3 -8 -2 -16 -13 -19 -10 -3 -1 -4 19 -3 21 0 38 4 38 8 0
4 11 3 25 -2 18 -7 25 -6 25 3 0 8 -14 12 -40 12 -22 0 -40 3 -40 7 0 5 -4 8
-10 8 -5 0 -7 -6 -4 -14z"/>
<path d="M2875 1960 c-3 -5 -1 -10 4 -10 6 0 11 5 11 10 0 6 -2 10 -4 10 -3 0
-8 -4 -11 -10z"/>
<path d="M378 1953 c6 -3 12 -12 12 -21 0 -11 3 -13 8 -6 4 6 15 10 25 8 9 -1
17 3 17 10 0 7 -15 12 -37 13 -21 0 -32 -2 -25 -4z"/>
<path d="M451 1953 c-1 -18 13 -23 29 -11 12 8 12 9 -2 5 -9 -3 -19 -1 -22 6
-3 9 -5 9 -5 0z"/>
<path d="M555 1920 c-3 -6 1 -7 9 -4 18 7 21 14 7 14 -6 0 -13 -4 -16 -10z"/>
<path d="M572 1891 c-11 -7 -11 -9 2 -14 10 -4 16 -1 16 8 0 17 -1 17 -18 6z"/>
<path d="M790 760 c-9 -6 -10 -10 -3 -10 6 0 15 5 18 10 8 12 4 12 -15 0z"/>
<path d="M755 750 c3 -5 8 -10 11 -10 2 0 4 5 4 10 0 6 -5 10 -11 10 -5 0 -7
-4 -4 -10z"/>
<path d="M2426 751 c-3 -4 -1 -13 4 -21 7 -12 10 -12 16 3 3 9 11 14 18 10 6
-3 7 -2 3 2 -10 12 -36 15 -41 6z"/>
<path d="M2515 731 c-3 -6 -18 -9 -32 -7 -14 3 -22 2 -18 -2 3 -4 10 -7 13 -7
4 0 12 -4 18 -8 12 -7 41 19 31 29 -3 3 -8 0 -12 -5z"/>
<path d="M571 718 c-1 -23 15 -32 23 -12 3 8 2 13 -3 9 -5 -3 -12 1 -14 7 -4
8 -6 7 -6 -4z"/>
<path d="M2006 635 c-3 -8 4 -12 17 -10 12 0 29 -2 39 -7 10 -5 18 -3 22 7 6
16 6 16 -41 20 -18 1 -34 -3 -37 -10z"/>
<path d="M2450 646 c0 -2 7 -7 16 -10 8 -3 12 -2 9 4 -6 10 -25 14 -25 6z"/>
<path d="M1137 599 c4 -13 8 -18 11 -10 2 7 -1 18 -6 23 -8 8 -9 4 -5 -13z"/>
<path d="M1751 604 c-1 -16 5 -20 29 -20 17 1 30 4 30 9 0 4 0 11 0 16 0 10
-19 9 -37 -2 -6 -4 -14 -1 -16 5 -3 7 -6 4 -6 -8z"/>
<path d="M2257 613 c-4 -3 -7 -11 -7 -17 0 -6 5 -5 12 2 6 6 9 14 7 17 -3 3
-9 2 -12 -2z"/>
<path d="M1624 599 c-4 -7 -3 -9 4 -5 5 3 13 0 15 -6 4 -9 6 -10 6 -1 1 17
-16 25 -25 12z"/>
<path d="M753 585 c0 -8 4 -12 9 -9 5 3 6 10 3 15 -9 13 -12 11 -12 -6z"/>
<path d="M1920 562 c0 -4 9 -8 19 -8 11 0 17 4 15 8 -3 4 -12 8 -20 8 -8 0
-14 -4 -14 -8z"/>
</g>
</svg>
